<mxfile host="app.diagrams.net" agent="Mozilla/5.0 (Windows NT 10.0; Win64; x64) AppleWebKit/537.36 (KHTML, like Gecko) Chrome/134.0.0.0 Safari/537.36" version="27.0.5">
  <diagram name="Trang-1" id="a_slmGinei47d17qWGi2">
    <mxGraphModel dx="1489" dy="871" grid="1" gridSize="10" guides="1" tooltips="1" connect="1" arrows="1" fold="1" page="1" pageScale="1" pageWidth="827" pageHeight="1169" math="0" shadow="0">
      <root>
        <mxCell id="0" />
        <mxCell id="1" parent="0" />
        <mxCell id="0NTsloLeTGmJkxv5cky3-12" value="" style="edgeStyle=orthogonalEdgeStyle;rounded=0;orthogonalLoop=1;jettySize=auto;html=1;" edge="1" parent="1" source="0NTsloLeTGmJkxv5cky3-9" target="0NTsloLeTGmJkxv5cky3-11">
          <mxGeometry relative="1" as="geometry" />
        </mxCell>
        <mxCell id="0NTsloLeTGmJkxv5cky3-18" value="" style="edgeStyle=orthogonalEdgeStyle;rounded=0;orthogonalLoop=1;jettySize=auto;html=1;" edge="1" parent="1" source="0NTsloLeTGmJkxv5cky3-9" target="0NTsloLeTGmJkxv5cky3-11">
          <mxGeometry relative="1" as="geometry" />
        </mxCell>
        <mxCell id="0NTsloLeTGmJkxv5cky3-9" value="User&lt;div&gt;&lt;br&gt;&lt;/div&gt;" style="shape=umlActor;verticalLabelPosition=bottom;verticalAlign=top;html=1;outlineConnect=0;" vertex="1" parent="1">
          <mxGeometry x="370" y="110" width="30" height="60" as="geometry" />
        </mxCell>
        <mxCell id="0NTsloLeTGmJkxv5cky3-16" value="" style="edgeStyle=orthogonalEdgeStyle;rounded=0;orthogonalLoop=1;jettySize=auto;html=1;" edge="1" parent="1" source="0NTsloLeTGmJkxv5cky3-11" target="0NTsloLeTGmJkxv5cky3-15">
          <mxGeometry relative="1" as="geometry" />
        </mxCell>
        <mxCell id="0NTsloLeTGmJkxv5cky3-11" value="&lt;div style=&quot;&quot;&gt;&lt;span style=&quot;background-color: transparent; color: light-dark(rgb(0, 0, 0), rgb(255, 255, 255));&quot;&gt;Application&lt;/span&gt;&lt;/div&gt;" style="whiteSpace=wrap;html=1;verticalAlign=top;align=center;spacingTop=10;" vertex="1" parent="1">
          <mxGeometry x="325" y="240" width="120" height="50" as="geometry" />
        </mxCell>
        <mxCell id="0NTsloLeTGmJkxv5cky3-20" value="" style="edgeStyle=orthogonalEdgeStyle;rounded=0;orthogonalLoop=1;jettySize=auto;html=1;" edge="1" parent="1" source="0NTsloLeTGmJkxv5cky3-15" target="0NTsloLeTGmJkxv5cky3-19">
          <mxGeometry relative="1" as="geometry">
            <Array as="points">
              <mxPoint x="390" y="470" />
              <mxPoint x="390" y="470" />
            </Array>
          </mxGeometry>
        </mxCell>
        <mxCell id="0NTsloLeTGmJkxv5cky3-23" value="" style="edgeStyle=orthogonalEdgeStyle;rounded=0;orthogonalLoop=1;jettySize=auto;html=1;" edge="1" parent="1" source="0NTsloLeTGmJkxv5cky3-15" target="0NTsloLeTGmJkxv5cky3-22">
          <mxGeometry relative="1" as="geometry" />
        </mxCell>
        <mxCell id="0NTsloLeTGmJkxv5cky3-36" value="REST" style="edgeLabel;html=1;align=center;verticalAlign=middle;resizable=0;points=[];" vertex="1" connectable="0" parent="0NTsloLeTGmJkxv5cky3-23">
          <mxGeometry x="0.5512" y="-1" relative="1" as="geometry">
            <mxPoint x="21" y="11" as="offset" />
          </mxGeometry>
        </mxCell>
        <mxCell id="0NTsloLeTGmJkxv5cky3-25" value="" style="edgeStyle=orthogonalEdgeStyle;rounded=0;orthogonalLoop=1;jettySize=auto;html=1;" edge="1" parent="1" source="0NTsloLeTGmJkxv5cky3-15" target="0NTsloLeTGmJkxv5cky3-24">
          <mxGeometry relative="1" as="geometry" />
        </mxCell>
        <mxCell id="0NTsloLeTGmJkxv5cky3-15" value="Gateway&lt;div&gt;&lt;br&gt;&lt;/div&gt;" style="whiteSpace=wrap;html=1;verticalAlign=top;spacingTop=10;" vertex="1" parent="1">
          <mxGeometry x="325" y="365" width="120" height="60" as="geometry" />
        </mxCell>
        <mxCell id="0NTsloLeTGmJkxv5cky3-17" value="API&lt;div&gt;&lt;br&gt;&lt;/div&gt;" style="text;html=1;align=center;verticalAlign=middle;resizable=0;points=[];autosize=1;strokeColor=none;fillColor=none;" vertex="1" parent="1">
          <mxGeometry x="380" y="320" width="40" height="40" as="geometry" />
        </mxCell>
        <mxCell id="0NTsloLeTGmJkxv5cky3-26" style="edgeStyle=orthogonalEdgeStyle;rounded=0;orthogonalLoop=1;jettySize=auto;html=1;" edge="1" parent="1" source="0NTsloLeTGmJkxv5cky3-19" target="0NTsloLeTGmJkxv5cky3-22">
          <mxGeometry relative="1" as="geometry" />
        </mxCell>
        <mxCell id="0NTsloLeTGmJkxv5cky3-27" style="edgeStyle=orthogonalEdgeStyle;rounded=0;orthogonalLoop=1;jettySize=auto;html=1;entryX=0;entryY=0.5;entryDx=0;entryDy=0;" edge="1" parent="1" source="0NTsloLeTGmJkxv5cky3-19" target="0NTsloLeTGmJkxv5cky3-24">
          <mxGeometry relative="1" as="geometry" />
        </mxCell>
        <mxCell id="0NTsloLeTGmJkxv5cky3-34" style="edgeStyle=orthogonalEdgeStyle;rounded=0;orthogonalLoop=1;jettySize=auto;html=1;" edge="1" parent="1" source="0NTsloLeTGmJkxv5cky3-19" target="0NTsloLeTGmJkxv5cky3-31">
          <mxGeometry relative="1" as="geometry" />
        </mxCell>
        <mxCell id="0NTsloLeTGmJkxv5cky3-19" value="order-service&lt;div&gt;&lt;br&gt;&lt;/div&gt;" style="whiteSpace=wrap;html=1;verticalAlign=top;spacingTop=10;" vertex="1" parent="1">
          <mxGeometry x="325" y="525" width="125" height="60" as="geometry" />
        </mxCell>
        <mxCell id="0NTsloLeTGmJkxv5cky3-33" style="edgeStyle=orthogonalEdgeStyle;rounded=0;orthogonalLoop=1;jettySize=auto;html=1;" edge="1" parent="1" source="0NTsloLeTGmJkxv5cky3-22" target="0NTsloLeTGmJkxv5cky3-30">
          <mxGeometry relative="1" as="geometry" />
        </mxCell>
        <mxCell id="0NTsloLeTGmJkxv5cky3-22" value="payment-service&lt;div&gt;&lt;br&gt;&lt;/div&gt;" style="whiteSpace=wrap;html=1;verticalAlign=top;spacingTop=10;" vertex="1" parent="1">
          <mxGeometry x="100" y="525" width="120" height="60" as="geometry" />
        </mxCell>
        <mxCell id="0NTsloLeTGmJkxv5cky3-35" style="edgeStyle=orthogonalEdgeStyle;rounded=0;orthogonalLoop=1;jettySize=auto;html=1;" edge="1" parent="1" source="0NTsloLeTGmJkxv5cky3-24" target="0NTsloLeTGmJkxv5cky3-32">
          <mxGeometry relative="1" as="geometry" />
        </mxCell>
        <mxCell id="0NTsloLeTGmJkxv5cky3-24" value="shipping-service&lt;div&gt;&lt;br&gt;&lt;/div&gt;" style="whiteSpace=wrap;html=1;verticalAlign=top;spacingTop=10;" vertex="1" parent="1">
          <mxGeometry x="580" y="522.5" width="120" height="65" as="geometry" />
        </mxCell>
        <mxCell id="0NTsloLeTGmJkxv5cky3-28" value="Kafka&lt;div&gt;&lt;br&gt;&lt;/div&gt;" style="text;html=1;align=center;verticalAlign=middle;resizable=0;points=[];autosize=1;strokeColor=none;fillColor=none;" vertex="1" parent="1">
          <mxGeometry x="255" y="523" width="50" height="40" as="geometry" />
        </mxCell>
        <mxCell id="0NTsloLeTGmJkxv5cky3-29" value="Kafka&lt;div&gt;&lt;br&gt;&lt;/div&gt;" style="text;html=1;align=center;verticalAlign=middle;resizable=0;points=[];autosize=1;strokeColor=none;fillColor=none;" vertex="1" parent="1">
          <mxGeometry x="485" y="523" width="50" height="40" as="geometry" />
        </mxCell>
        <mxCell id="0NTsloLeTGmJkxv5cky3-30" value="MongoDB" style="shape=cylinder3;whiteSpace=wrap;html=1;boundedLbl=1;backgroundOutline=1;size=15;" vertex="1" parent="1">
          <mxGeometry x="130" y="690" width="60" height="80" as="geometry" />
        </mxCell>
        <mxCell id="0NTsloLeTGmJkxv5cky3-31" value="&#xa;&lt;span style=&quot;color: rgb(0, 0, 0); font-family: Helvetica; font-size: 12px; font-style: normal; font-variant-ligatures: normal; font-variant-caps: normal; font-weight: 400; letter-spacing: normal; orphans: 2; text-align: center; text-indent: 0px; text-transform: none; widows: 2; word-spacing: 0px; -webkit-text-stroke-width: 0px; white-space: normal; background-color: rgb(236, 236, 236); text-decoration-thickness: initial; text-decoration-style: initial; text-decoration-color: initial; display: inline !important; float: none;&quot;&gt;MongoDB&lt;/span&gt;&#xa;&#xa;" style="shape=cylinder3;whiteSpace=wrap;html=1;boundedLbl=1;backgroundOutline=1;size=15;" vertex="1" parent="1">
          <mxGeometry x="357.5" y="690" width="60" height="80" as="geometry" />
        </mxCell>
        <mxCell id="0NTsloLeTGmJkxv5cky3-32" value="&#xa;&lt;span style=&quot;color: rgb(0, 0, 0); font-family: Helvetica; font-size: 12px; font-style: normal; font-variant-ligatures: normal; font-variant-caps: normal; font-weight: 400; letter-spacing: normal; orphans: 2; text-align: center; text-indent: 0px; text-transform: none; widows: 2; word-spacing: 0px; -webkit-text-stroke-width: 0px; white-space: normal; background-color: rgb(236, 236, 236); text-decoration-thickness: initial; text-decoration-style: initial; text-decoration-color: initial; display: inline !important; float: none;&quot;&gt;MongoDB&lt;/span&gt;&#xa;&#xa;" style="shape=cylinder3;whiteSpace=wrap;html=1;boundedLbl=1;backgroundOutline=1;size=15;" vertex="1" parent="1">
          <mxGeometry x="610" y="690" width="60" height="80" as="geometry" />
        </mxCell>
        <mxCell id="0NTsloLeTGmJkxv5cky3-37" value="&lt;span style=&quot;color: rgb(0, 0, 0); font-family: Helvetica; font-size: 11px; font-style: normal; font-variant-ligatures: normal; font-variant-caps: normal; font-weight: 400; letter-spacing: normal; orphans: 2; text-align: center; text-indent: 0px; text-transform: none; widows: 2; word-spacing: 0px; -webkit-text-stroke-width: 0px; white-space: nowrap; background-color: rgb(255, 255, 255); text-decoration-thickness: initial; text-decoration-style: initial; text-decoration-color: initial; display: inline !important; float: none;&quot;&gt;REST&lt;/span&gt;" style="text;whiteSpace=wrap;html=1;" vertex="1" parent="1">
          <mxGeometry x="400" y="460" width="60" height="40" as="geometry" />
        </mxCell>
        <mxCell id="0NTsloLeTGmJkxv5cky3-38" value="&lt;span style=&quot;color: rgb(0, 0, 0); font-family: Helvetica; font-size: 11px; font-style: normal; font-variant-ligatures: normal; font-variant-caps: normal; font-weight: 400; letter-spacing: normal; orphans: 2; text-align: center; text-indent: 0px; text-transform: none; widows: 2; word-spacing: 0px; -webkit-text-stroke-width: 0px; white-space: nowrap; background-color: rgb(255, 255, 255); text-decoration-thickness: initial; text-decoration-style: initial; text-decoration-color: initial; display: inline !important; float: none;&quot;&gt;REST&lt;/span&gt;" style="text;whiteSpace=wrap;html=1;" vertex="1" parent="1">
          <mxGeometry x="650" y="460" width="60" height="40" as="geometry" />
        </mxCell>
      </root>
    </mxGraphModel>
  </diagram>
</mxfile>
